/* XPM */
static char * shutdown_button_small_xpm[] = {
"25 25 219 2",
"  	c None",
". 	c #860000",
"+ 	c #A30000",
"@ 	c #A20000",
"# 	c #8C0000",
"$ 	c #B00000",
"% 	c #FF0606",
"& 	c #FF1515",
"* 	c #FF1F1F",
"= 	c #FF2828",
"- 	c #FF2B2B",
"; 	c #FF2C2C",
"> 	c #FF3131",
", 	c #FF3434",
"' 	c #FF1D1D",
") 	c #C30000",
"! 	c #760000",
"~ 	c #FF0000",
"{ 	c #FF9999",
"] 	c #FFB5B5",
"^ 	c #FFB6B6",
"/ 	c #FFB7B7",
"( 	c #FFBCBC",
"_ 	c #FFB8B8",
": 	c #FFB9B9",
"< 	c #FFBABA",
"[ 	c #FFBBBB",
"} 	c #FFB0B0",
"| 	c #960000",
"1 	c #8E0000",
"2 	c #FFAFAF",
"3 	c #FFA5A5",
"4 	c #FFA7A7",
"5 	c #FFA6A6",
"6 	c #FFA8A8",
"7 	c #FFA9A9",
"8 	c #FFE2E2",
"9 	c #FFFFFF",
"0 	c #FFACAC",
"a 	c #FFABAB",
"b 	c #FFAEAE",
"c 	c #FFADAD",
"d 	c #B20000",
"e 	c #FF9E9E",
"f 	c #FF9F9F",
"g 	c #FFA1A1",
"h 	c #FFA3A3",
"i 	c #FFA4A4",
"j 	c #FF0E0E",
"k 	c #B10000",
"l 	c #FF0101",
"m 	c #FF9D9D",
"n 	c #FF9696",
"o 	c #FF9797",
"p 	c #FF9898",
"q 	c #FF9393",
"r 	c #FFDFDF",
"s 	c #FFA0A0",
"t 	c #FF9B9B",
"u 	c #FF1212",
"v 	c #FF9494",
"w 	c #FF8E8E",
"x 	c #FF8D8D",
"y 	c #FF8F8F",
"z 	c #FFEDED",
"A 	c #FFDDDD",
"B 	c #FFDCDC",
"C 	c #FFDBDB",
"D 	c #FF9595",
"E 	c #FF1313",
"F 	c #FF8C8C",
"G 	c #FF8585",
"H 	c #FF8686",
"I 	c #FFDADA",
"J 	c #FF9090",
"K 	c #FFA2A2",
"L 	c #FFEBEB",
"M 	c #FFF6F6",
"N 	c #FF1010",
"O 	c #FF8383",
"P 	c #FF7D7D",
"Q 	c #FF7E7E",
"R 	c #FF8181",
"S 	c #FFC8C8",
"T 	c #FF7A7A",
"U 	c #FFD7D7",
"V 	c #FF8888",
"W 	c #FF7F7F",
"X 	c #FFE4E4",
"Y 	c #FF8080",
"Z 	c #FF0D0D",
"` 	c #FF7B7B",
" .	c #FF7474",
"..	c #FFC1C1",
"+.	c #FFEAEA",
"@.	c #FF7070",
"#.	c #FF7878",
"$.	c #FF7575",
"%.	c #FFD2D2",
"&.	c #FF7C7C",
"*.	c #FF8A8A",
"=.	c #FF0A0A",
"-.	c #FF7272",
";.	c #FF6D6D",
">.	c #FF6565",
",.	c #FFF9F9",
"'.	c #FF6F6F",
").	c #FF7171",
"!.	c #FF7373",
"~.	c #FFC6C6",
"{.	c #FFC9C9",
"].	c #FF2E2E",
"^.	c #FF6969",
"/.	c #FF6464",
"(.	c #FF6767",
"_.	c #FF6868",
":.	c #FF6A6A",
"<.	c #FF6B6B",
"[.	c #FF6161",
"}.	c #FF5C5C",
"|.	c #FF6060",
"1.	c #FF5F5F",
"2.	c #FF6262",
"3.	c #FF6666",
"4.	c #FFE1E1",
"5.	c #FF5959",
"6.	c #FF5454",
"7.	c #FF4B4B",
"8.	c #FF5656",
"9.	c #FF5858",
"0.	c #FF5757",
"a.	c #FF5D5D",
"b.	c #FF1A1A",
"c.	c #FF7777",
"d.	c #FF2727",
"e.	c #FF4C4C",
"f.	c #FF4949",
"g.	c #FF4F4F",
"h.	c #FF5050",
"i.	c #FF3939",
"j.	c #FF4545",
"k.	c #FE6767",
"l.	c #FE6060",
"m.	c #FE4747",
"n.	c #FE4848",
"o.	c #FE4545",
"p.	c #FE0606",
"q.	c #FE0000",
"r.	c #FFFCFC",
"s.	c #8D0000",
"t.	c #FC0000",
"u.	c #F70000",
"v.	c #F60101",
"w.	c #F83A3A",
"x.	c #F83838",
"y.	c #FCA9A9",
"z.	c #FFFAFA",
"A.	c #FA6161",
"B.	c #F83939",
"C.	c #F84040",
"D.	c #F50101",
"E.	c #F40000",
"F.	c #F85B5B",
"G.	c #F73B3B",
"H.	c #F50000",
"I.	c #F80000",
"J.	c #AA0000",
"K.	c #F10000",
"L.	c #EC0000",
"M.	c #EC0303",
"N.	c #EF3030",
"O.	c #EF2E2E",
"P.	c #F79C9C",
"Q.	c #FAC5C5",
"R.	c #F58282",
"S.	c #F25555",
"T.	c #F46E6E",
"U.	c #FBD2D2",
"V.	c #EF3F3F",
"W.	c #EA0000",
"X.	c #EE0000",
"Y.	c #A40000",
"Z.	c #E70000",
"`.	c #E10000",
" +	c #E20000",
".+	c #E41818",
"++	c #E52424",
"@+	c #E93F3F",
"#+	c #F08A8A",
"$+	c #F9D0D0",
"%+	c #FCE5E5",
"&+	c #F7BFBF",
"*+	c #ED7575",
"=+	c #E00000",
"-+	c #DF0000",
";+	c #E30000",
">+	c #9C0000",
",+	c #DB0000",
"'+	c #D70000",
")+	c #D60000",
"!+	c #D50000",
"~+	c #D80000",
"{+	c #970000",
"]+	c #7C0000",
"^+	c #D30000",
"/+	c #CD0000",
"(+	c #CC0000",
"_+	c #CB0000",
":+	c #CA0000",
"<+	c #CF0000",
"[+	c #820000",
"}+	c #9E0000",
"|+	c #C60000",
"1+	c #C50000",
"2+	c #C40000",
"3+	c #9F0000",
"4+	c #840000",
"5+	c #830000",
"6+	c #800000",
"                                                  ",
"      . + @ @ @ @ @ @ @ @ @ @ @ @ @ @ @ + #       ",
"    $ % & * = - ; - - - ; ; ; ; ; ; ; > , ' )     ",
"  ! ~ { ] ] ] ] ] ^ / / ( _ : : < < [ [ [ } ~ |   ",
"  1 ~ 2 3 4 5 6 6 7 6 8 9 0 a a 0 0 b c 2 : ~ d   ",
"  1 ~ 5 e e e f f g e 8 9 4 h h i 3 3 3 5 b j k   ",
"  1 l m n n o o p q 7 r 9 ^ s { t m m e e 3 u k   ",
"  1 ~ v w x y w s z 9 A 9 B 9 C D D v n D m E k   ",
"  1 ~ F G G H s 9 I J C 9 F K L M J x x x v N k   ",
"  1 ~ O P Q R 9 S T P U 9 V O W X X Y G G F Z k   ",
"  1 ~ `  . ...+.@.#.$.%.9 &.T ` W 9 f &.W *.=.k   ",
"  1 ~ -.;.>.,.i '.@.@. .` ).-.!.).~.{.;.].l ~ k   ",
"  1 ~ ^.>./.9 $.(.(.(._._.:.^.<.:.3 X ~ ~ ~ ~ k   ",
"  1 ~ [.}.|.9 _.1.1.|.|.[.[.2.2.3.` 4.~ ~ ~ ~ k   ",
"  1 ~ 5.6.7.9 W 8.8.9.0.5.5.5.a.b.c.] ~ ~ ~ ~ k   ",
"  1 ~ d.e.f.{./ 7.g.g.g.h.h.h.Z ~ r _.~ ~ ~ ~ k   ",
"  1 ~ ~ i.j.k.9 l.m.m.n.n.o.p.q.l.r.q.q.q.q.~ $   ",
"  s.t.u.v.w.x.y.z.A.B.C.x.D.E.F.9 G.H.E.H.E.I.J.  ",
"  1 K.L.L.M.N.O.P.9 Q.R.S.T.U.9 V.W.W.W.W.W.X.Y.  ",
"  # Z.`. +`.`..+++@+#+$+%+&+*+=+=+=+=+=+-+=+;+>+  ",
"  s.,+'+'+'+'+'+)+)+)+!+!+!+)+)+!+)+!+!+!+!+~+{+  ",
"  ]+^+/+/+(+(+(+(+(+(+(+(+(+_+_+_+_+_+_+_+:+<+[+  ",
"    }+|+1+1+1+1+1+1+2+2+2+2+2+2+2+) ) ) ) 2+3+    ",
"      [+4+4+5+5+5+5+5+5+5+5+5+5+5+5+5+5+5+6+      ",
"                                                  "};
